%TF.GenerationSoftware,KiCad,Pcbnew,6.0.6-3a73a75311~116~ubuntu20.04.1*%
%TF.CreationDate,2022-07-25T20:16:27+02:00*%
%TF.ProjectId,rgb-board,7267622d-626f-4617-9264-2e6b69636164,rev?*%
%TF.SameCoordinates,Original*%
%TF.FileFunction,Paste,Top*%
%TF.FilePolarity,Positive*%
%FSLAX46Y46*%
G04 Gerber Fmt 4.6, Leading zero omitted, Abs format (unit mm)*
G04 Created by KiCad (PCBNEW 6.0.6-3a73a75311~116~ubuntu20.04.1) date 2022-07-25 20:16:27*
%MOMM*%
%LPD*%
G01*
G04 APERTURE LIST*
G04 Aperture macros list*
%AMRoundRect*
0 Rectangle with rounded corners*
0 $1 Rounding radius*
0 $2 $3 $4 $5 $6 $7 $8 $9 X,Y pos of 4 corners*
0 Add a 4 corners polygon primitive as box body*
4,1,4,$2,$3,$4,$5,$6,$7,$8,$9,$2,$3,0*
0 Add four circle primitives for the rounded corners*
1,1,$1+$1,$2,$3*
1,1,$1+$1,$4,$5*
1,1,$1+$1,$6,$7*
1,1,$1+$1,$8,$9*
0 Add four rect primitives between the rounded corners*
20,1,$1+$1,$2,$3,$4,$5,0*
20,1,$1+$1,$4,$5,$6,$7,0*
20,1,$1+$1,$6,$7,$8,$9,0*
20,1,$1+$1,$8,$9,$2,$3,0*%
G04 Aperture macros list end*
%ADD10RoundRect,0.250000X-1.137500X-0.550000X1.137500X-0.550000X1.137500X0.550000X-1.137500X0.550000X0*%
%ADD11RoundRect,0.250000X0.337500X0.475000X-0.337500X0.475000X-0.337500X-0.475000X0.337500X-0.475000X0*%
%ADD12RoundRect,0.250000X-0.475000X0.337500X-0.475000X-0.337500X0.475000X-0.337500X0.475000X0.337500X0*%
%ADD13R,1.200000X0.900000*%
%ADD14RoundRect,0.249999X0.350001X0.450001X-0.350001X0.450001X-0.350001X-0.450001X0.350001X-0.450001X0*%
%ADD15RoundRect,0.249999X-0.350001X-0.450001X0.350001X-0.450001X0.350001X0.450001X-0.350001X0.450001X0*%
%ADD16RoundRect,0.249999X-0.450001X0.350001X-0.450001X-0.350001X0.450001X-0.350001X0.450001X0.350001X0*%
%ADD17RoundRect,0.250000X0.475000X-0.337500X0.475000X0.337500X-0.475000X0.337500X-0.475000X-0.337500X0*%
%ADD18R,0.800000X1.900000*%
%ADD19R,2.000000X1.500000*%
%ADD20R,2.000000X3.800000*%
%ADD21R,2.500000X1.200000*%
%ADD22R,0.900000X1.200000*%
%ADD23RoundRect,0.250000X1.412500X0.550000X-1.412500X0.550000X-1.412500X-0.550000X1.412500X-0.550000X0*%
%ADD24RoundRect,0.250000X1.137500X0.550000X-1.137500X0.550000X-1.137500X-0.550000X1.137500X-0.550000X0*%
%ADD25R,1.900000X0.800000*%
%ADD26RoundRect,0.250000X-0.337500X-0.475000X0.337500X-0.475000X0.337500X0.475000X-0.337500X0.475000X0*%
%ADD27RoundRect,0.250000X0.450000X-0.350000X0.450000X0.350000X-0.450000X0.350000X-0.450000X-0.350000X0*%
%ADD28RoundRect,0.250000X0.350000X0.450000X-0.350000X0.450000X-0.350000X-0.450000X0.350000X-0.450000X0*%
%ADD29RoundRect,0.250000X-0.450000X0.350000X-0.450000X-0.350000X0.450000X-0.350000X0.450000X0.350000X0*%
%ADD30RoundRect,0.250000X-0.550000X1.500000X-0.550000X-1.500000X0.550000X-1.500000X0.550000X1.500000X0*%
%ADD31RoundRect,0.250000X0.550000X-1.500000X0.550000X1.500000X-0.550000X1.500000X-0.550000X-1.500000X0*%
%ADD32RoundRect,0.250000X1.050000X0.550000X-1.050000X0.550000X-1.050000X-0.550000X1.050000X-0.550000X0*%
%ADD33R,1.200000X2.500000*%
%ADD34RoundRect,0.250000X-1.500000X-0.550000X1.500000X-0.550000X1.500000X0.550000X-1.500000X0.550000X0*%
G04 APERTURE END LIST*
D10*
%TO.C,C120*%
X144432000Y-132143500D03*
X148557000Y-132143500D03*
%TD*%
D11*
%TO.C,C121*%
X147722500Y-136842500D03*
X145647500Y-136842500D03*
%TD*%
D10*
%TO.C,C122*%
X144432000Y-125920500D03*
X148557000Y-125920500D03*
%TD*%
D11*
%TO.C,C205*%
X114766000Y-145986500D03*
X112691000Y-145986500D03*
%TD*%
D12*
%TO.C,C206*%
X117094000Y-136249500D03*
X117094000Y-138324500D03*
%TD*%
D13*
%TO.C,D201*%
X102679500Y-145797000D03*
X102679500Y-149097000D03*
%TD*%
D14*
%TO.C,R1*%
X83296000Y-143065500D03*
X81296000Y-143065500D03*
%TD*%
D15*
%TO.C,R2*%
X81296000Y-145669000D03*
X83296000Y-145669000D03*
%TD*%
D14*
%TO.C,R3*%
X83296000Y-140525500D03*
X81296000Y-140525500D03*
%TD*%
%TO.C,R202*%
X104679500Y-143065500D03*
X102679500Y-143065500D03*
%TD*%
D16*
%TO.C,R203*%
X110109000Y-138700000D03*
X110109000Y-140700000D03*
%TD*%
%TO.C,R205*%
X117221000Y-143097500D03*
X117221000Y-145097500D03*
%TD*%
D17*
%TO.C,C201*%
X88281000Y-145134500D03*
X88281000Y-143059500D03*
%TD*%
%TO.C,C202*%
X91681000Y-145134500D03*
X91681000Y-143059500D03*
%TD*%
D16*
%TO.C,R204*%
X110109000Y-143081500D03*
X110109000Y-145081500D03*
%TD*%
D17*
%TO.C,C204*%
X107251500Y-145182500D03*
X107251500Y-143107500D03*
%TD*%
D18*
%TO.C,Q201*%
X112778500Y-143041500D03*
X114678500Y-143041500D03*
X113728500Y-140041500D03*
%TD*%
D19*
%TO.C,U1*%
X140437000Y-132792500D03*
X140437000Y-130492500D03*
D20*
X134137000Y-130492500D03*
D19*
X140437000Y-128192500D03*
%TD*%
D15*
%TO.C,R143*%
X76851000Y-110998000D03*
X78851000Y-110998000D03*
%TD*%
%TO.C,R101*%
X76851000Y-52959000D03*
X78851000Y-52959000D03*
%TD*%
%TO.C,R115*%
X76851000Y-70866000D03*
X78851000Y-70866000D03*
%TD*%
D14*
%TO.C,R152*%
X78851000Y-131064000D03*
X76851000Y-131064000D03*
%TD*%
%TO.C,R129*%
X78851000Y-90932000D03*
X76851000Y-90932000D03*
%TD*%
D21*
%TO.C,SW143*%
X80601000Y-107529000D03*
X80601000Y-105029000D03*
X80601000Y-102529000D03*
X75101000Y-107529000D03*
X75101000Y-105029000D03*
X75101000Y-102529000D03*
%TD*%
%TO.C,SW105*%
X80601000Y-67397000D03*
X80601000Y-64897000D03*
X80601000Y-62397000D03*
X75101000Y-67397000D03*
X75101000Y-64897000D03*
X75101000Y-62397000D03*
%TD*%
%TO.C,SW129*%
X80601000Y-87463000D03*
X80601000Y-84963000D03*
X80601000Y-82463000D03*
X75101000Y-87463000D03*
X75101000Y-84963000D03*
X75101000Y-82463000D03*
%TD*%
%TO.C,SW101*%
X80601000Y-49490000D03*
X80601000Y-46990000D03*
X80601000Y-44490000D03*
X75101000Y-49490000D03*
X75101000Y-46990000D03*
X75101000Y-44490000D03*
%TD*%
%TO.C,SW152*%
X80601000Y-127595000D03*
X80601000Y-125095000D03*
X80601000Y-122595000D03*
X75101000Y-127595000D03*
X75101000Y-125095000D03*
X75101000Y-122595000D03*
%TD*%
D15*
%TO.C,R156*%
X106251500Y-110934500D03*
X108251500Y-110934500D03*
%TD*%
D18*
%TO.C,Q101*%
X108778000Y-47029500D03*
X110678000Y-47029500D03*
X109728000Y-44029500D03*
%TD*%
D22*
%TO.C,D107*%
X101027500Y-94869000D03*
X97727500Y-94869000D03*
%TD*%
D16*
%TO.C,R127*%
X113220500Y-62500000D03*
X113220500Y-64500000D03*
%TD*%
D22*
%TO.C,D103*%
X102043500Y-59626500D03*
X98743500Y-59626500D03*
%TD*%
D16*
%TO.C,R106*%
X105029000Y-46981500D03*
X105029000Y-48981500D03*
%TD*%
D14*
%TO.C,R132*%
X100631500Y-78232000D03*
X98631500Y-78232000D03*
%TD*%
D16*
%TO.C,R107*%
X113157000Y-47031400D03*
X113157000Y-49031400D03*
%TD*%
D22*
%TO.C,D108*%
X97740200Y-102387400D03*
X101040200Y-102387400D03*
%TD*%
D12*
%TO.C,C117*%
X104965500Y-73236000D03*
X104965500Y-75311000D03*
%TD*%
D16*
%TO.C,R158*%
X107670600Y-117754400D03*
X107670600Y-119754400D03*
%TD*%
D14*
%TO.C,R118*%
X100758500Y-62484000D03*
X98758500Y-62484000D03*
%TD*%
%TO.C,R146*%
X99742500Y-97726500D03*
X97742500Y-97726500D03*
%TD*%
D23*
%TO.C,C103*%
X94104500Y-78232000D03*
X89029500Y-78232000D03*
%TD*%
D22*
%TO.C,D109*%
X101027500Y-111696500D03*
X97727500Y-111696500D03*
%TD*%
D12*
%TO.C,C114*%
X105092500Y-41910000D03*
X105092500Y-43985000D03*
%TD*%
D14*
%TO.C,R104*%
X100695000Y-46881500D03*
X98695000Y-46881500D03*
%TD*%
D15*
%TO.C,R147*%
X106204000Y-94234000D03*
X108204000Y-94234000D03*
%TD*%
%TO.C,R114*%
X161433000Y-43942000D03*
X163433000Y-43942000D03*
%TD*%
D24*
%TO.C,C104*%
X92931000Y-97726500D03*
X88806000Y-97726500D03*
%TD*%
D22*
%TO.C,D101*%
X101980000Y-44005500D03*
X98680000Y-44005500D03*
%TD*%
D24*
%TO.C,C105*%
X92931000Y-114554000D03*
X88806000Y-114554000D03*
%TD*%
D15*
%TO.C,R142*%
X161331400Y-73914000D03*
X163331400Y-73914000D03*
%TD*%
D18*
%TO.C,Q105*%
X108841500Y-62460000D03*
X110741500Y-62460000D03*
X109791500Y-59460000D03*
%TD*%
D12*
%TO.C,C116*%
X105092500Y-57509500D03*
X105092500Y-59584500D03*
%TD*%
D22*
%TO.C,D104*%
X98756200Y-67157600D03*
X102056200Y-67157600D03*
%TD*%
D16*
%TO.C,R135*%
X161315400Y-76063600D03*
X161315400Y-78063600D03*
%TD*%
%TO.C,R121*%
X161391600Y-60772800D03*
X161391600Y-62772800D03*
%TD*%
D25*
%TO.C,Q113*%
X107720000Y-96776500D03*
X107720000Y-98676500D03*
X110720000Y-97726500D03*
%TD*%
D22*
%TO.C,D102*%
X98680000Y-51536600D03*
X101980000Y-51536600D03*
%TD*%
D15*
%TO.C,R128*%
X161382200Y-58674000D03*
X163382200Y-58674000D03*
%TD*%
D22*
%TO.C,D106*%
X98603800Y-82778600D03*
X101903800Y-82778600D03*
%TD*%
D14*
%TO.C,R133*%
X110845600Y-82651600D03*
X108845600Y-82651600D03*
%TD*%
D22*
%TO.C,D110*%
X97740200Y-119100600D03*
X101040200Y-119100600D03*
%TD*%
D16*
%TO.C,R148*%
X102936800Y-97679000D03*
X102936800Y-99679000D03*
%TD*%
D12*
%TO.C,C119*%
X103632000Y-109601000D03*
X103632000Y-111676000D03*
%TD*%
D14*
%TO.C,R155*%
X99742500Y-114554000D03*
X97742500Y-114554000D03*
%TD*%
D23*
%TO.C,C102*%
X94231500Y-62484000D03*
X89156500Y-62484000D03*
%TD*%
D16*
%TO.C,R141*%
X113207800Y-78273400D03*
X113207800Y-80273400D03*
%TD*%
D22*
%TO.C,D105*%
X101853000Y-75374500D03*
X98553000Y-75374500D03*
%TD*%
D16*
%TO.C,R120*%
X105092500Y-62500000D03*
X105092500Y-64500000D03*
%TD*%
%TO.C,R113*%
X161467800Y-45964600D03*
X161467800Y-47964600D03*
%TD*%
D18*
%TO.C,Q109*%
X108828800Y-78284200D03*
X110728800Y-78284200D03*
X109778800Y-75284200D03*
%TD*%
D25*
%TO.C,Q114*%
X107694600Y-113565900D03*
X107694600Y-115465900D03*
X110694600Y-114515900D03*
%TD*%
D16*
%TO.C,R149*%
X107696000Y-100854000D03*
X107696000Y-102854000D03*
%TD*%
D12*
%TO.C,C118*%
X103632000Y-92794000D03*
X103632000Y-94869000D03*
%TD*%
D16*
%TO.C,R134*%
X104963000Y-78272500D03*
X104963000Y-80272500D03*
%TD*%
D23*
%TO.C,C101*%
X94168000Y-46863000D03*
X89093000Y-46863000D03*
%TD*%
D16*
%TO.C,R157*%
X102946200Y-114544600D03*
X102946200Y-116544600D03*
%TD*%
D14*
%TO.C,R119*%
X110839000Y-66852800D03*
X108839000Y-66852800D03*
%TD*%
%TO.C,R105*%
X110778800Y-51371500D03*
X108778800Y-51371500D03*
%TD*%
D26*
%TO.C,C106*%
X108779400Y-49276000D03*
X110854400Y-49276000D03*
%TD*%
%TO.C,C108*%
X108817500Y-64719200D03*
X110892500Y-64719200D03*
%TD*%
D27*
%TO.C,R108*%
X136474200Y-45500800D03*
X136474200Y-43500800D03*
%TD*%
D26*
%TO.C,C110*%
X108817500Y-80543400D03*
X110892500Y-80543400D03*
%TD*%
D18*
%TO.C,Q102*%
X136128800Y-49808000D03*
X134228800Y-49808000D03*
X135178800Y-52808000D03*
%TD*%
D12*
%TO.C,C112*%
X105435400Y-96752500D03*
X105435400Y-98827500D03*
%TD*%
%TO.C,C113*%
X105308400Y-113541900D03*
X105308400Y-115616900D03*
%TD*%
D17*
%TO.C,C124*%
X134213600Y-47417900D03*
X134213600Y-45342900D03*
%TD*%
%TO.C,C125*%
X134200900Y-62484000D03*
X134200900Y-60409000D03*
%TD*%
%TO.C,C126*%
X134188200Y-77669300D03*
X134188200Y-75594300D03*
%TD*%
D18*
%TO.C,Q106*%
X136116100Y-64857500D03*
X134216100Y-64857500D03*
X135166100Y-67857500D03*
%TD*%
%TO.C,Q107*%
X149108200Y-64743200D03*
X147208200Y-64743200D03*
X148158200Y-67743200D03*
%TD*%
%TO.C,Q108*%
X153756400Y-64743200D03*
X151856400Y-64743200D03*
X152806400Y-67743200D03*
%TD*%
%TO.C,Q110*%
X136103400Y-80084800D03*
X134203400Y-80084800D03*
X135153400Y-83084800D03*
%TD*%
%TO.C,Q111*%
X149133600Y-80034000D03*
X147233600Y-80034000D03*
X148183600Y-83034000D03*
%TD*%
%TO.C,Q112*%
X153705600Y-79983200D03*
X151805600Y-79983200D03*
X152755600Y-82983200D03*
%TD*%
D25*
%TO.C,Q116*%
X158903800Y-60589200D03*
X158903800Y-58689200D03*
X155903800Y-59639200D03*
%TD*%
%TO.C,Q117*%
X158802200Y-75753000D03*
X158802200Y-73853000D03*
X155802200Y-74803000D03*
%TD*%
D28*
%TO.C,R103*%
X100695000Y-48996600D03*
X98695000Y-48996600D03*
%TD*%
%TO.C,R117*%
X100771200Y-64592200D03*
X98771200Y-64592200D03*
%TD*%
D27*
%TO.C,R122*%
X136499600Y-60486800D03*
X136499600Y-58486800D03*
%TD*%
%TO.C,R123*%
X153433400Y-61639200D03*
X153433400Y-59639200D03*
%TD*%
%TO.C,R125*%
X149090000Y-61613800D03*
X149090000Y-59613800D03*
%TD*%
%TO.C,R126*%
X151249000Y-61613800D03*
X151249000Y-59613800D03*
%TD*%
D28*
%TO.C,R131*%
X100644200Y-80340200D03*
X98644200Y-80340200D03*
%TD*%
D27*
%TO.C,R136*%
X136448800Y-75676000D03*
X136448800Y-73676000D03*
%TD*%
%TO.C,R137*%
X153390600Y-76768200D03*
X153390600Y-74768200D03*
%TD*%
%TO.C,R139*%
X149148800Y-76768200D03*
X149148800Y-74768200D03*
%TD*%
%TO.C,R140*%
X151282400Y-76768200D03*
X151282400Y-74768200D03*
%TD*%
D28*
%TO.C,R145*%
X99780600Y-99847400D03*
X97780600Y-99847400D03*
%TD*%
D29*
%TO.C,R151*%
X111175800Y-100828600D03*
X111175800Y-102828600D03*
%TD*%
D28*
%TO.C,R154*%
X99755200Y-116586000D03*
X97755200Y-116586000D03*
%TD*%
D29*
%TO.C,R160*%
X111150400Y-117694200D03*
X111150400Y-119694200D03*
%TD*%
D27*
%TO.C,R162*%
X155956000Y-68106800D03*
X155956000Y-66106800D03*
%TD*%
%TO.C,R163*%
X155930600Y-83296000D03*
X155930600Y-81296000D03*
%TD*%
D29*
%TO.C,R165*%
X146931000Y-59613800D03*
X146931000Y-61613800D03*
%TD*%
%TO.C,R166*%
X146913600Y-74768200D03*
X146913600Y-76768200D03*
%TD*%
D28*
%TO.C,R201*%
X104682800Y-140830300D03*
X102682800Y-140830300D03*
%TD*%
D29*
%TO.C,R164*%
X146989800Y-44923200D03*
X146989800Y-46923200D03*
%TD*%
D27*
%TO.C,R161*%
X155981400Y-53425600D03*
X155981400Y-51425600D03*
%TD*%
D18*
%TO.C,Q104*%
X153781800Y-50062000D03*
X151881800Y-50062000D03*
X152831800Y-53062000D03*
%TD*%
%TO.C,Q103*%
X149108200Y-50011200D03*
X147208200Y-50011200D03*
X148158200Y-53011200D03*
%TD*%
D25*
%TO.C,Q115*%
X158903800Y-45882600D03*
X158903800Y-43982600D03*
X155903800Y-44932600D03*
%TD*%
D27*
%TO.C,R109*%
X153390600Y-46923200D03*
X153390600Y-44923200D03*
%TD*%
%TO.C,R112*%
X151257000Y-46923200D03*
X151257000Y-44923200D03*
%TD*%
%TO.C,R111*%
X149098000Y-46923200D03*
X149098000Y-44923200D03*
%TD*%
D30*
%TO.C,C109*%
X142011400Y-60014200D03*
X142011400Y-65614200D03*
%TD*%
%TO.C,C111*%
X142036800Y-75203400D03*
X142036800Y-80803400D03*
%TD*%
D31*
%TO.C,C207*%
X124714000Y-139528200D03*
X124714000Y-133928200D03*
%TD*%
D32*
%TO.C,C203*%
X99564600Y-143027400D03*
X95964600Y-143027400D03*
%TD*%
D33*
%TO.C,SW10*%
X75398000Y-141647800D03*
X72898000Y-141647800D03*
X70398000Y-141647800D03*
X75398000Y-147147800D03*
X72898000Y-147147800D03*
X70398000Y-147147800D03*
%TD*%
D34*
%TO.C,C115*%
X113862200Y-38252400D03*
X119462200Y-38252400D03*
%TD*%
D30*
%TO.C,C107*%
X142087600Y-44977400D03*
X142087600Y-50577400D03*
%TD*%
M02*
