%TF.GenerationSoftware,KiCad,Pcbnew,6.0.7-f9a2dced07~116~ubuntu22.04.1*%
%TF.CreationDate,2022-09-15T22:03:01+02:00*%
%TF.ProjectId,rgb-board,7267622d-626f-4617-9264-2e6b69636164,rev?*%
%TF.SameCoordinates,Original*%
%TF.FileFunction,Soldermask,Bot*%
%TF.FilePolarity,Negative*%
%FSLAX46Y46*%
G04 Gerber Fmt 4.6, Leading zero omitted, Abs format (unit mm)*
G04 Created by KiCad (PCBNEW 6.0.7-f9a2dced07~116~ubuntu22.04.1) date 2022-09-15 22:03:01*
%MOMM*%
%LPD*%
G01*
G04 APERTURE LIST*
%ADD10R,1.700000X1.700000*%
%ADD11O,1.700000X1.700000*%
%ADD12C,2.000000*%
%ADD13O,5.200000X2.200000*%
%ADD14R,3.000000X1.700000*%
%ADD15C,3.200000*%
%ADD16C,1.440000*%
G04 APERTURE END LIST*
D10*
%TO.C,J1*%
X214920000Y-64630000D03*
D11*
X217460000Y-64630000D03*
X214920000Y-67170000D03*
X217460000Y-67170000D03*
X214920000Y-69710000D03*
X217460000Y-69710000D03*
X214920000Y-72250000D03*
X217460000Y-72250000D03*
X214920000Y-74790000D03*
X217460000Y-74790000D03*
X214920000Y-77330000D03*
X217460000Y-77330000D03*
X214920000Y-79870000D03*
X217460000Y-79870000D03*
X214920000Y-82410000D03*
X217460000Y-82410000D03*
X214920000Y-84950000D03*
X217460000Y-84950000D03*
X214920000Y-87490000D03*
X217460000Y-87490000D03*
X214920000Y-90030000D03*
X217460000Y-90030000D03*
X214920000Y-92570000D03*
X217460000Y-92570000D03*
X214920000Y-95110000D03*
X217460000Y-95110000D03*
X214920000Y-97650000D03*
X217460000Y-97650000D03*
X214920000Y-100190000D03*
X217460000Y-100190000D03*
X214920000Y-102730000D03*
X217460000Y-102730000D03*
X214920000Y-105270000D03*
X217460000Y-105270000D03*
X214920000Y-107810000D03*
X217460000Y-107810000D03*
X214920000Y-110350000D03*
X217460000Y-110350000D03*
X214920000Y-112890000D03*
X217460000Y-112890000D03*
X214920000Y-115430000D03*
X217460000Y-115430000D03*
X214920000Y-117970000D03*
X217460000Y-117970000D03*
X214920000Y-120510000D03*
X217460000Y-120510000D03*
X214920000Y-123050000D03*
X217460000Y-123050000D03*
X214920000Y-125590000D03*
X217460000Y-125590000D03*
%TD*%
D12*
%TO.C,J6*%
X66996000Y-105029000D03*
X69596000Y-105029000D03*
D13*
X53696000Y-113529000D03*
X53696000Y-96529000D03*
X63896000Y-113529000D03*
X63896000Y-96529000D03*
%TD*%
D12*
%TO.C,J8*%
X66996000Y-125095000D03*
X69596000Y-125095000D03*
D13*
X53696000Y-133595000D03*
X63896000Y-116595000D03*
X63896000Y-133595000D03*
X53696000Y-116595000D03*
%TD*%
D12*
%TO.C,J5*%
X66996000Y-44831000D03*
X69596000Y-44831000D03*
D13*
X53696000Y-53331000D03*
X63896000Y-36331000D03*
X63896000Y-53331000D03*
X53696000Y-36331000D03*
%TD*%
D12*
%TO.C,J7*%
X66996000Y-64897000D03*
X69596000Y-64897000D03*
D13*
X63896000Y-56397000D03*
X53696000Y-73397000D03*
X53696000Y-56397000D03*
X63896000Y-73397000D03*
%TD*%
D12*
%TO.C,J9*%
X66996000Y-84963000D03*
X69596000Y-84963000D03*
D13*
X53696000Y-93463000D03*
X63896000Y-76463000D03*
X63896000Y-93463000D03*
X53696000Y-76463000D03*
%TD*%
D14*
%TO.C,J10*%
X57284000Y-137149000D03*
X57284000Y-151649000D03*
D12*
X61284000Y-140399000D03*
X60034000Y-148399000D03*
X56784000Y-144399000D03*
%TD*%
D15*
%TO.C,J3*%
X84709000Y-36830000D03*
%TD*%
%TO.C,J4*%
X213614000Y-150368000D03*
%TD*%
D16*
%TO.C,RV103*%
X127853200Y-82372200D03*
X130393200Y-79832200D03*
X127853200Y-77292200D03*
%TD*%
%TO.C,RV102*%
X127853200Y-67233800D03*
X130393200Y-64693800D03*
X127853200Y-62153800D03*
%TD*%
%TO.C,RV101*%
X127863600Y-52095400D03*
X130403600Y-49555400D03*
X127863600Y-47015400D03*
%TD*%
M02*
