M48
; DRILL file {KiCad 6.0.7-f9a2dced07~116~ubuntu22.04.1} date 2022-09-15T22:03:03 CEST
; FORMAT={-:-/ absolute / inch / decimal}
; #@! TF.CreationDate,2022-09-15T22:03:03+02:00
; #@! TF.GenerationSoftware,Kicad,Pcbnew,6.0.7-f9a2dced07~116~ubuntu22.04.1
; #@! TF.FileFunction,Plated,1,2,PTH
FMAT,2
INCH
; #@! TA.AperFunction,Plated,PTH,ViaDrill
T1C0.0197
; #@! TA.AperFunction,Plated,PTH,ComponentDrill
T2C0.0315
; #@! TA.AperFunction,Plated,PTH,ComponentDrill
T3C0.0394
; #@! TA.AperFunction,Plated,PTH,ComponentDrill
T4C0.0472
%
G90
G05
T1
X4.335Y-5.415
X4.364Y-4.451
X4.3644Y-2.6895
X4.3645Y-2.0825
X4.365Y-1.5875
X4.365Y-2.3425
X4.365Y-2.9625
X4.365Y-3.311
X4.365Y-3.5875
X4.365Y-3.7975
X4.365Y-4.255
X5.641Y-2.583
X5.642Y-3.182
X5.65Y-1.9835
X5.737Y-2.943
X5.74Y-2.348
X5.742Y-1.767
X6.134Y-2.911
X6.137Y-1.721
X6.138Y-2.312
T2
X5.0336Y-2.447
X5.0336Y-2.647
X5.0336Y-3.043
X5.0336Y-3.243
X5.034Y-1.851
X5.034Y-2.051
X5.1336Y-2.547
X5.1336Y-3.143
X5.134Y-1.951
T3
X8.4614Y-2.5445
X8.4614Y-2.6445
X8.4614Y-2.7445
X8.4614Y-2.8445
X8.4614Y-2.9445
X8.4614Y-3.0445
X8.4614Y-3.1445
X8.4614Y-3.2445
X8.4614Y-3.3445
X8.4614Y-3.4445
X8.4614Y-3.5445
X8.4614Y-3.6445
X8.4614Y-3.7445
X8.4614Y-3.8445
X8.4614Y-3.9445
X8.4614Y-4.0445
X8.4614Y-4.1445
X8.4614Y-4.2445
X8.4614Y-4.3445
X8.4614Y-4.4445
X8.4614Y-4.5445
X8.4614Y-4.6445
X8.4614Y-4.7445
X8.4614Y-4.8445
X8.4614Y-4.9445
X8.5614Y-2.5445
X8.5614Y-2.6445
X8.5614Y-2.7445
X8.5614Y-2.8445
X8.5614Y-2.9445
X8.5614Y-3.0445
X8.5614Y-3.1445
X8.5614Y-3.2445
X8.5614Y-3.3445
X8.5614Y-3.4445
X8.5614Y-3.5445
X8.5614Y-3.6445
X8.5614Y-3.7445
X8.5614Y-3.8445
X8.5614Y-3.9445
X8.5614Y-4.0445
X8.5614Y-4.1445
X8.5614Y-4.2445
X8.5614Y-4.3445
X8.5614Y-4.4445
X8.5614Y-4.5445
X8.5614Y-4.6445
X8.5614Y-4.7445
X8.5614Y-4.8445
X8.5614Y-4.9445
T4
X2.2356Y-5.685
X2.3635Y-5.8425
X2.4128Y-5.5275
X2.6376Y-1.765
X2.6376Y-2.555
X2.6376Y-3.345
X2.6376Y-4.135
X2.6376Y-4.925
X2.74Y-1.765
X2.74Y-2.555
X2.74Y-3.345
X2.74Y-4.135
X2.74Y-4.925
T3
G00X2.1731Y-1.4304
M15
G01X2.055Y-1.4304
M16
G05
G00X2.1731Y-2.0996
M15
G01X2.055Y-2.0996
M16
G05
G00X2.1731Y-2.2204
M15
G01X2.055Y-2.2204
M16
G05
G00X2.1731Y-2.8896
M15
G01X2.055Y-2.8896
M16
G05
G00X2.1731Y-3.0104
M15
G01X2.055Y-3.0104
M16
G05
G00X2.1731Y-3.6796
M15
G01X2.055Y-3.6796
M16
G05
G00X2.1731Y-3.8004
M15
G01X2.055Y-3.8004
M16
G05
G00X2.1731Y-4.4696
M15
G01X2.055Y-4.4696
M16
G05
G00X2.1731Y-4.5904
M15
G01X2.055Y-4.5904
M16
G05
G00X2.1731Y-5.2596
M15
G01X2.055Y-5.2596
M16
G05
G00X2.5746Y-1.4304
M15
G01X2.4565Y-1.4304
M16
G05
G00X2.5746Y-2.0996
M15
G01X2.4565Y-2.0996
M16
G05
G00X2.5746Y-2.2204
M15
G01X2.4565Y-2.2204
M16
G05
G00X2.5746Y-2.8896
M15
G01X2.4565Y-2.8896
M16
G05
G00X2.5746Y-3.0104
M15
G01X2.4565Y-3.0104
M16
G05
G00X2.5746Y-3.6796
M15
G01X2.4565Y-3.6796
M16
G05
G00X2.5746Y-3.8004
M15
G01X2.4565Y-3.8004
M16
G05
G00X2.5746Y-4.4696
M15
G01X2.4565Y-4.4696
M16
G05
G00X2.5746Y-4.5904
M15
G01X2.4565Y-4.5904
M16
G05
G00X2.5746Y-5.2596
M15
G01X2.4565Y-5.2596
M16
G05
T0
M30
