M48
; DRILL file {KiCad 5.1.12-84ad8e8a86~92~ubuntu20.04.1} date 2022-06-23T00:05:24 CEST
; FORMAT={-:-/ absolute / inch / decimal}
; #@! TF.CreationDate,2022-06-23T00:05:24+02:00
; #@! TF.GenerationSoftware,Kicad,Pcbnew,5.1.12-84ad8e8a86~92~ubuntu20.04.1
; #@! TF.FileFunction,Plated,1,2,PTH
FMAT,2
INCH
T1C0.0197
T2C0.0394
T3C0.0472
%
G90
G05
T1
X4.2575Y-5.4575
X4.365Y-1.5875
X4.365Y-2.0175
X4.365Y-2.3425
X4.365Y-2.6225
X4.365Y-2.9625
X4.365Y-3.2475
X4.365Y-3.5875
X4.365Y-3.7975
X4.365Y-4.255
X4.365Y-4.445
T2
X8.4614Y-2.5445
X8.4614Y-2.6445
X8.4614Y-2.7445
X8.4614Y-2.8445
X8.4614Y-2.9445
X8.4614Y-3.0445
X8.4614Y-3.1445
X8.4614Y-3.2445
X8.4614Y-3.3445
X8.4614Y-3.4445
X8.4614Y-3.5445
X8.4614Y-3.6445
X8.4614Y-3.7445
X8.4614Y-3.8445
X8.4614Y-3.9445
X8.4614Y-4.0445
X8.4614Y-4.1445
X8.4614Y-4.2445
X8.4614Y-4.3445
X8.4614Y-4.4445
X8.4614Y-4.5445
X8.4614Y-4.6445
X8.4614Y-4.7445
X8.4614Y-4.8445
X8.4614Y-4.9445
X8.5614Y-2.5445
X8.5614Y-2.6445
X8.5614Y-2.7445
X8.5614Y-2.8445
X8.5614Y-2.9445
X8.5614Y-3.0445
X8.5614Y-3.1445
X8.5614Y-3.2445
X8.5614Y-3.3445
X8.5614Y-3.4445
X8.5614Y-3.5445
X8.5614Y-3.6445
X8.5614Y-3.7445
X8.5614Y-3.8445
X8.5614Y-3.9445
X8.5614Y-4.0445
X8.5614Y-4.1445
X8.5614Y-4.2445
X8.5614Y-4.3445
X8.5614Y-4.4445
X8.5614Y-4.5445
X8.5614Y-4.6445
X8.5614Y-4.7445
X8.5614Y-4.8445
X8.5614Y-4.9445
T3
X2.2356Y-5.685
X2.3635Y-5.8425
X2.4128Y-5.5275
X2.6376Y-1.765
X2.6376Y-2.555
X2.6376Y-3.345
X2.6376Y-4.135
X2.6376Y-4.925
X2.74Y-1.765
X2.74Y-2.555
X2.74Y-3.345
X2.74Y-4.135
X2.74Y-4.925
T2
G00X2.1731Y-1.4304
M15
G01X2.055Y-1.4304
M16
G05
G00X2.1731Y-2.0996
M15
G01X2.055Y-2.0996
M16
G05
G00X2.1731Y-2.2204
M15
G01X2.055Y-2.2204
M16
G05
G00X2.1731Y-2.8896
M15
G01X2.055Y-2.8896
M16
G05
G00X2.1731Y-3.0104
M15
G01X2.055Y-3.0104
M16
G05
G00X2.1731Y-3.6796
M15
G01X2.055Y-3.6796
M16
G05
G00X2.1731Y-3.8004
M15
G01X2.055Y-3.8004
M16
G05
G00X2.1731Y-4.4696
M15
G01X2.055Y-4.4696
M16
G05
G00X2.1731Y-4.5904
M15
G01X2.055Y-4.5904
M16
G05
G00X2.1731Y-5.2596
M15
G01X2.055Y-5.2596
M16
G05
G00X2.5746Y-1.4304
M15
G01X2.4565Y-1.4304
M16
G05
G00X2.5746Y-2.0996
M15
G01X2.4565Y-2.0996
M16
G05
G00X2.5746Y-2.2204
M15
G01X2.4565Y-2.2204
M16
G05
G00X2.5746Y-2.8896
M15
G01X2.4565Y-2.8896
M16
G05
G00X2.5746Y-3.0104
M15
G01X2.4565Y-3.0104
M16
G05
G00X2.5746Y-3.6796
M15
G01X2.4565Y-3.6796
M16
G05
G00X2.5746Y-3.8004
M15
G01X2.4565Y-3.8004
M16
G05
G00X2.5746Y-4.4696
M15
G01X2.4565Y-4.4696
M16
G05
G00X2.5746Y-4.5904
M15
G01X2.4565Y-4.5904
M16
G05
G00X2.5746Y-5.2596
M15
G01X2.4565Y-5.2596
M16
G05
T0
M30
